<?xml version="1.0" encoding="UTF-8"?>
<svg version="1.1" xmlns="http://www.w3.org/2000/svg" width="512" height="512">
<path d="M0 0 C0.66525696 -0.0049649 1.33051392 -0.00992981 2.01593018 -0.01504517 C4.22116118 -0.02967341 6.4263202 -0.03647045 8.6315918 -0.04199219 C10.16375226 -0.04774386 11.6959127 -0.05350159 13.22807312 -0.05926514 C16.44355607 -0.06977753 19.659014 -0.07561838 22.87451172 -0.07910156 C26.99042945 -0.0845816 31.10601558 -0.10859786 35.22182941 -0.13707352 C38.38831032 -0.1557197 41.55471174 -0.16090658 44.7212429 -0.16243744 C46.23827105 -0.16546091 47.75529789 -0.17347917 49.27227211 -0.18662262 C51.39791504 -0.20372238 53.52275325 -0.20179363 55.6484375 -0.1953125 C56.85707962 -0.19895813 58.06572174 -0.20260376 59.31098938 -0.20635986 C62.91108513 0.20613666 64.68891451 0.91801974 67.51831055 3.16113281 C70.80021675 7.37487096 71.87549161 12.32777125 73.22631836 17.40405273 C73.60512901 18.79090775 73.60512901 18.79090775 73.99159241 20.20578003 C74.82546665 23.26579941 75.64847315 26.3286312 76.47143555 29.39160156 C77.05506781 31.54195198 77.63936872 33.69212102 78.2243042 35.84211731 C79.76711764 41.52012716 81.30072257 47.20058515 82.8324585 52.8815918 C84.3666993 58.56547718 85.90966704 64.24699113 87.4519043 69.92871094 C90.06509846 79.56008609 92.66905029 89.19392268 95.26750946 98.82928276 C96.81522281 104.56564754 98.37195129 110.29944168 99.93823242 116.03076172 C100.27530212 117.2682869 100.61237183 118.50581207 100.95965576 119.78083801 C101.54673529 121.9350405 102.13652044 124.08850863 102.72979736 126.24101257 C102.9742157 127.14060196 103.21863403 128.04019135 103.47045898 128.96704102 C103.77907867 130.09224907 103.77907867 130.09224907 104.09393311 131.2401886 C104.51831055 133.16113281 104.51831055 133.16113281 104.51831055 136.16113281 C116.72831055 135.83113281 128.93831055 135.50113281 141.51831055 135.16113281 C141.88956055 132.27363281 142.26081055 129.38613281 142.64331055 126.41113281 C147.87120516 89.78253321 166.65665772 56.15623228 196.23364258 33.62768555 C227.24150956 10.82964885 265.09393691 1.14476715 303.2644043 6.47363281 C335.2866729 11.41938425 361.93222384 25.96461133 384.51831055 49.16113281 C385.01331055 49.61101562 385.50831055 50.06089844 386.01831055 50.52441406 C407.25038254 70.33118492 420.5703663 102.38976088 423.06152344 130.92822266 C423.14809708 131.91059906 423.23467072 132.89297546 423.3238678 133.90512085 C423.38803391 134.6496048 423.45220001 135.39408875 423.51831055 136.16113281 C424.10855515 136.15447098 424.69879974 136.14780914 425.30693054 136.14094543 C431.45505319 136.07452979 437.60307376 136.02930631 443.75146484 135.99633789 C446.04545227 135.98125973 448.33941091 135.96079412 450.63330078 135.93481445 C453.9322826 135.89838924 457.23088294 135.8813965 460.5300293 135.86816406 C461.55416428 135.85268021 462.57829926 135.83719635 463.63346863 135.82124329 C470.00725444 135.81973982 473.49456641 136.54055456 478.39331055 140.78613281 C480.62268327 145.49258634 478.95896745 151.31242916 477.28515625 156.07670593 C476.76607612 157.41615705 476.23510555 158.75104386 475.6940918 160.08178711 C475.25407837 161.20217723 475.25407837 161.20217723 474.80517578 162.34520149 C473.82443335 164.83380806 472.8277943 167.31571155 471.83081055 169.79785156 C471.11733188 171.59721969 470.40470993 173.39692771 469.69287109 175.19694519 C467.734016 180.13967956 465.75975643 185.07611895 463.78100586 190.01091766 C462.49987622 193.20712339 461.22161412 196.40446268 459.9440918 199.60211182 C453.97119521 214.54840954 447.96679396 229.48193463 441.95281982 244.41174316 C439.54221291 250.39728535 437.13382765 256.38372128 434.7253418 262.37011719 C432.00776441 269.12472362 429.29006024 275.87927798 426.5703125 282.63301086 C426.16148331 283.64940486 425.75265411 284.66579885 425.33143616 285.71299267 C424.53390774 287.69173532 423.73347627 289.66931078 422.92991638 291.64561176 C421.00608098 296.38919833 419.14248424 301.14230177 417.38842773 305.95150757 C416.87292862 307.3311961 416.87292862 307.3311961 416.34701538 308.73875713 C415.70729645 310.45747756 415.08600677 312.18322687 414.48770142 313.91679859 C414.05498428 315.06498837 414.05498428 315.06498837 413.61352539 316.2363739 C413.37628754 316.90108546 413.13904968 317.56579702 412.8946228 318.25065136 C410.70185678 321.29446559 407.96599054 322.88144383 404.51831055 324.16113281 C401.08965974 324.70173517 397.7268598 324.68489678 394.26148987 324.64215088 C393.24278791 324.64556858 392.22408595 324.64898628 391.17451423 324.65250754 C387.76872379 324.65908429 384.36372538 324.63711287 380.95800781 324.61523438 C378.51365681 324.61410586 376.06930444 324.61473984 373.62495422 324.61700439 C368.36642901 324.6179146 363.10808215 324.60658599 357.84961128 324.58405304 C350.24683773 324.55149584 342.64416008 324.54112224 335.04132437 324.53610107 C322.70522944 324.52735423 310.36924052 324.5007553 298.03320312 324.46289062 C286.05241424 324.42615468 274.07165418 324.39785069 262.09082031 324.38085938 C260.98241655 324.37928303 260.98241655 324.37928303 259.8516208 324.37767485 C256.14446575 324.37245456 252.4373105 324.36739976 248.73015511 324.36242723 C217.99279651 324.32098423 187.25556965 324.25025443 156.51831055 324.16113281 C156.70941406 324.79913818 156.90051758 325.43714355 157.09741211 326.09448242 C160.96109235 339.03967099 164.63081519 351.96115404 167.51831055 365.16113281 C168.16216241 365.16037337 168.80601428 365.15961393 169.4693768 365.15883148 C207.6061261 365.11410187 245.74287152 365.07977313 283.87964167 365.05900215 C288.45597535 365.05650066 293.03230898 365.05391202 297.60864258 365.05126953 C298.51973084 365.05074491 299.43081911 365.05022029 300.3695161 365.04967977 C315.13313526 365.04097067 329.89673887 365.02519793 344.6603488 365.00682722 C359.80253331 364.98814221 374.94470967 364.97701905 390.08690524 364.97295582 C399.43487401 364.97020786 408.78279888 364.96152011 418.13075414 364.94529988 C424.53587146 364.93475025 430.94096598 364.93152759 437.34609136 364.93413006 C441.04475371 364.93541451 444.74333921 364.9334078 448.44198799 364.92272186 C452.44748039 364.91123359 456.45280795 364.91514312 460.45831299 364.92062378 C461.63340085 364.9147981 462.80848872 364.90897241 464.0191853 364.90297019 C465.62478507 364.90894334 465.62478507 364.90894334 467.2628212 364.91503716 C468.18781992 364.91427771 469.11281865 364.91351827 470.06584764 364.91273582 C472.72120454 365.18168287 474.28961268 365.7070539 476.51831055 367.16113281 C479.19736785 371.17971876 479.21441748 374.43755003 478.51831055 379.16113281 C476.72437387 382.0314315 475.53567778 383.65244919 472.51831055 385.16113281 C470.77962311 385.31379894 469.03583554 385.41045877 467.29174805 385.47753906 C466.26049805 385.51943359 465.22924805 385.56132812 464.16674805 385.60449219 C463.08651367 385.64380859 462.0062793 385.683125 460.89331055 385.72363281 C459.8053418 385.76681641 458.71737305 385.81 457.59643555 385.85449219 C454.90385885 385.96077811 452.21118801 386.06281338 449.51831055 386.16113281 C449.78675781 386.67047363 450.05520508 387.17981445 450.33178711 387.70458984 C456.69400024 400.04543752 458.19866198 411.82629492 454.4831543 425.21582031 C450.02717417 438.81828597 441.22164543 448.58981116 428.51831055 455.16113281 C415.24625237 460.72882285 402.28434114 460.35248823 388.9597168 455.16503906 C378.31376619 450.3652267 370.60928431 442.59762902 365.51831055 432.16113281 C365.10581055 431.37738281 364.69331055 430.59363281 364.26831055 429.78613281 C359.62349904 419.46432947 359.60045424 405.26972339 363.39331055 394.66113281 C364.05923809 393.14183145 364.76325894 391.63816808 365.51831055 390.16113281 C366.17831055 388.84113281 366.83831055 387.52113281 367.51831055 386.16113281 C331.87831055 385.83113281 296.23831055 385.50113281 259.51831055 385.16113281 C261.16831055 388.46113281 262.81831055 391.76113281 264.51831055 395.16113281 C268.37359474 405.87414979 267.91863307 418.99462863 263.7878418 429.54785156 C261.7523827 433.73776582 259.33760156 437.46127584 256.51831055 441.16113281 C255.40456055 442.70800781 255.40456055 442.70800781 254.26831055 444.28613281 C244.82434839 454.15936598 232.92347438 458.94856311 219.39331055 459.41113281 C205.43811571 459.24048505 194.82874601 453.94408003 184.8112793 444.54785156 C175.0522119 434.3897763 171.16179289 422.26778648 171.29956055 408.38769531 C171.87854911 399.84761407 174.58150247 392.65193809 178.51831055 385.16113281 C177.85299316 385.18731689 177.18767578 385.21350098 176.50219727 385.24047852 C173.46614519 385.34488741 170.43047144 385.40959629 167.39331055 385.47363281 C166.3465918 385.51552734 165.29987305 385.55742187 164.22143555 385.60058594 C163.20307617 385.61669922 162.1847168 385.6328125 161.13549805 385.64941406 C160.20334473 385.67559814 159.27119141 385.70178223 158.31079102 385.72875977 C154.42887208 384.93968287 152.0070947 383.15296703 149.51831055 380.16113281 C147.94856959 376.75248153 147.04756607 373.22740779 146.12060547 369.59838867 C145.83200999 368.54159125 145.54341452 367.48479383 145.24607372 366.39597225 C144.63174443 364.13814172 144.02682464 361.87773327 143.4305687 359.61506271 C142.5408705 356.24654779 141.62316568 352.8871082 140.69473267 349.52908325 C138.73114518 342.41467514 136.80563629 335.29022473 134.8815918 328.16503906 C134.16262647 325.50856152 133.44291156 322.85228723 132.72319031 320.1960144 C131.20719354 314.59969483 129.69266821 309.00297903 128.17919922 303.40597534 C125.79695402 294.5964797 123.41105276 285.78797643 121.02416992 276.97973633 C120.82595005 276.24825107 120.62773017 275.51676581 120.42350364 274.76311433 C119.42907924 271.09350571 118.43458287 267.4239166 117.44002914 263.75434303 C116.65132915 260.84428321 115.86273019 257.93419604 115.07422256 255.02408409 C109.4300289 234.19355757 103.76942266 213.36769191 98.05564499 192.55612946 C97.33848051 189.94351623 96.62197384 187.33072279 95.9054575 184.71793175 C92.44381066 172.09543926 88.9783462 159.47399449 85.51025391 146.85327148 C81.150505 130.98747218 76.79416698 115.12074483 72.44434357 99.25222111 C70.20848736 91.09623503 67.96940043 82.94114965 65.7261622 74.78719079 C64.18232721 69.17443324 62.64223756 63.56065644 61.10500693 57.94608653 C60.20315083 54.65263606 59.2995576 51.35968588 58.39160919 48.06790924 C57.39431401 44.44880379 56.4032935 40.82803707 55.41381836 37.20678711 C55.11791306 36.13877585 54.82200775 35.0707646 54.51713562 33.97038937 C54.11882286 32.50514497 54.11882286 32.50514497 53.71246338 31.01029968 C53.48033772 30.1648846 53.24821205 29.31946951 53.00905228 28.44843578 C52.51831055 26.16113281 52.51831055 26.16113281 52.51831055 22.16113281 C51.81975449 22.16779465 51.12119843 22.17445648 50.401474 22.18132019 C43.79614949 22.2416025 37.19090252 22.28719377 30.58536434 22.31656933 C27.18992753 22.33217972 23.79471933 22.35333213 20.39941406 22.38745117 C16.48985596 22.42648895 12.58038823 22.44088034 8.6706543 22.45410156 C7.45997787 22.46958542 6.24930145 22.48506927 5.00193787 22.50102234 C-1.23431413 22.50226118 -6.05766135 22.39117202 -11.48168945 19.16113281 C-14.29894178 14.93525432 -14.28127329 11.12488593 -13.48168945 6.16113281 C-9.30766844 0.77884256 -6.57249148 0.03720356 0 0 Z M293.51831055 29.16113281 C293.51831055 47.31113281 293.51831055 65.46113281 293.51831055 84.16113281 C305.39831055 84.16113281 317.27831055 84.16113281 329.51831055 84.16113281 C328.10809923 77.11007625 326.76116483 71.5693559 323.83081055 65.22363281 C323.47559326 64.44439453 323.12037598 63.66515625 322.75439453 62.86230469 C316.40508709 49.22126977 308.00425007 36.56635853 294.51831055 29.16113281 C294.18831055 29.16113281 293.85831055 29.16113281 293.51831055 29.16113281 Z M258.95581055 38.47363281 C249.04550916 49.40037536 235.51831055 68.52994003 235.51831055 84.16113281 C247.39831055 84.16113281 259.27831055 84.16113281 271.51831055 84.16113281 C271.51831055 66.34113281 271.51831055 48.52113281 271.51831055 30.16113281 C266.88152018 30.16113281 262.24502344 35.50531874 258.95581055 38.47363281 Z M200.51831055 58.16113281 C199.63401367 58.96292969 198.7497168 59.76472656 197.83862305 60.59082031 C191.0459703 67.04489847 185.62964849 74.34187327 180.51831055 82.16113281 C180.51831055 82.49113281 180.51831055 82.82113281 180.51831055 83.16113281 C191.07831055 83.16113281 201.63831055 83.16113281 212.51831055 83.16113281 C213.67331055 79.53113281 214.82831055 75.90113281 216.01831055 72.16113281 C218.96462563 63.12646193 222.35343415 54.66959953 226.85424805 46.30566406 C228.27236451 43.62589 229.46051513 40.9979478 230.51831055 38.16113281 C220.47855701 38.16113281 207.54736943 51.69477377 200.51831055 58.16113281 Z M333.51831055 39.16113281 C334.3362207 40.76601562 334.3362207 40.76601562 335.1706543 42.40332031 C341.90807507 55.95196771 346.73236176 69.80328646 351.51831055 84.16113281 C362.07831055 84.16113281 372.63831055 84.16113281 383.51831055 84.16113281 C375.78516008 64.82825665 355.9614687 49.70322815 338.2878418 39.90332031 C336.37703765 38.96774155 336.37703765 38.96774155 333.51831055 39.16113281 Z M170.51831055 106.16113281 C167.84060416 111.4235592 167.84060416 111.4235592 166.3503418 116.76269531 C166.17954102 117.58253906 166.00874023 118.40238281 165.83276367 119.24707031 C165.66711914 120.08496094 165.50147461 120.92285156 165.33081055 121.78613281 C165.15356445 122.63175781 164.97631836 123.47738281 164.79370117 124.34863281 C164.02935696 128.09067321 163.51831055 131.31187707 163.51831055 135.16113281 C177.37831055 135.16113281 191.23831055 135.16113281 205.51831055 135.16113281 C207.00331055 120.80613281 207.00331055 120.80613281 208.51831055 106.16113281 C195.97831055 106.16113281 183.43831055 106.16113281 170.51831055 106.16113281 Z M229.51831055 106.16113281 C229.02331055 110.20363281 228.52831055 114.24613281 228.01831055 118.41113281 C227.78337891 120.31427246 227.78337891 120.31427246 227.54370117 122.25585938 C227.42188477 123.26100586 227.30006836 124.26615234 227.17456055 125.30175781 C227.04887695 126.32817383 226.92319336 127.35458984 226.79370117 128.41210938 C226.45185808 131.36401543 226.45185808 131.36401543 226.51831055 135.16113281 C241.03831055 135.16113281 255.55831055 135.16113281 270.51831055 135.16113281 C270.51831055 125.59113281 270.51831055 116.02113281 270.51831055 106.16113281 C256.98831055 106.16113281 243.45831055 106.16113281 229.51831055 106.16113281 Z M292.51831055 106.16113281 C292.51831055 115.73113281 292.51831055 125.30113281 292.51831055 135.16113281 C307.36831055 135.16113281 322.21831055 135.16113281 337.51831055 135.16113281 C337.51831055 128.38937383 337.51301065 122.69333791 336.58081055 116.16113281 C336.40678711 114.90300781 336.23276367 113.64488281 336.0534668 112.34863281 C335.60139224 109.15240302 335.60139224 109.15240302 334.51831055 106.16113281 C320.65831055 106.16113281 306.79831055 106.16113281 292.51831055 106.16113281 Z M356.51831055 106.16113281 C357.17831055 115.73113281 357.83831055 125.30113281 358.51831055 135.16113281 C372.37831055 135.16113281 386.23831055 135.16113281 400.51831055 135.16113281 C400.59498204 129.33933912 400.59498204 129.33933912 399.71362305 123.93457031 C399.54217773 123.21269531 399.37073242 122.49082031 399.1940918 121.74707031 C399.01233398 121.01746094 398.83057617 120.28785156 398.64331055 119.53613281 C398.46928711 118.79878906 398.29526367 118.06144531 398.1159668 117.30175781 C397.16461342 113.36949717 396.04076605 109.96727157 394.51831055 106.16113281 C381.97831055 106.16113281 369.43831055 106.16113281 356.51831055 106.16113281 Z M110.51831055 157.16113281 C113.84176741 172.18152371 117.94049448 186.99090621 122.01571655 201.82039642 C122.89193482 205.01114732 123.76478014 208.20282005 124.63793945 211.39440918 C127.17808159 220.67172532 129.72350507 229.94759476 132.26831055 239.22363281 C137.96081055 259.99300781 143.65331055 280.76238281 149.51831055 302.16113281 C230.36831055 302.16113281 311.21831055 302.16113281 394.51831055 302.16113281 C406.06831055 273.12113281 417.61831055 244.08113281 429.51831055 214.16113281 C444.7346567 176.2284405 444.7346567 176.2284405 450.91862488 160.89749146 C451.62712675 159.15222761 451.62712675 159.15222761 451.51831055 157.16113281 C441.94831055 157.16113281 432.37831055 157.16113281 422.51831055 157.16113281 C421.98206055 160.37863281 421.44581055 163.59613281 420.89331055 166.91113281 C414.0775958 205.2273529 395.52740103 238.98467394 363.36645508 261.88623047 C332.23908079 283.3587732 295.03839632 291.42032259 257.80737305 285.18847656 C236.9574136 281.33119584 216.48556362 272.98817294 199.51831055 260.16113281 C198.6365918 259.49984375 197.75487305 258.83855469 196.84643555 258.15722656 C167.01575983 234.74962987 147.87207836 202.08592245 143.15893555 164.27832031 C142.94164818 162.23965356 142.72927579 160.20046348 142.51831055 158.16113281 C141.40483459 156.82116349 141.40483459 156.82116349 138.55908203 157.04760742 C136.61884155 157.05546265 136.61884155 157.05546265 134.6394043 157.06347656 C133.95274185 157.06489151 133.26607941 157.06630646 132.55860901 157.06776428 C130.35763254 157.07337802 128.15675646 157.08593274 125.95581055 157.09863281 C124.46687972 157.10364605 122.97794731 157.10820926 121.48901367 157.11230469 C117.83207702 157.1225025 114.17520795 157.14146204 110.51831055 157.16113281 Z M163.51831055 157.16113281 C164.28947846 164.61009867 164.28947846 164.61009867 165.9284668 171.63378906 C166.16960205 172.46402588 166.4107373 173.2942627 166.65917969 174.1496582 C166.96331787 175.16406982 167.26745605 176.17848145 167.58081055 177.22363281 C168.55018555 180.50300781 169.51956055 183.78238281 170.51831055 187.16113281 C183.05831055 187.16113281 195.59831055 187.16113281 208.51831055 187.16113281 C207.52831055 177.26113281 206.53831055 167.36113281 205.51831055 157.16113281 C191.65831055 157.16113281 177.79831055 157.16113281 163.51831055 157.16113281 Z M226.51831055 157.16113281 C227.13682338 174.22185366 227.13682338 174.22185366 229.51831055 187.16113281 C243.37831055 187.16113281 257.23831055 187.16113281 271.51831055 187.16113281 C271.51831055 177.26113281 271.51831055 167.36113281 271.51831055 157.16113281 C256.66831055 157.16113281 241.81831055 157.16113281 226.51831055 157.16113281 Z M294.51831055 157.16113281 C294.51831055 167.06113281 294.51831055 176.96113281 294.51831055 187.16113281 C308.04831055 187.16113281 321.57831055 187.16113281 335.51831055 187.16113281 C336.01331055 183.88175781 336.50831055 180.60238281 337.01831055 177.22363281 C337.17493164 176.20922119 337.33155273 175.19480957 337.49291992 174.1496582 C337.61473633 173.31942139 337.73655273 172.48918457 337.86206055 171.63378906 C337.98774414 170.80113525 338.11342773 169.96848145 338.24291992 169.1105957 C338.61331378 165.14363803 338.51831055 161.14534476 338.51831055 157.16113281 C323.99831055 157.16113281 309.47831055 157.16113281 294.51831055 157.16113281 Z M358.51831055 157.16113281 C358.18831055 160.99738281 357.85831055 164.83363281 357.51831055 168.78613281 C357.41389648 169.98447754 357.30948242 171.18282227 357.2019043 172.41748047 C357.12069336 173.37702637 357.03948242 174.33657227 356.95581055 175.32519531 C356.87202148 176.29924316 356.78823242 177.27329102 356.7019043 178.27685547 C356.51374036 181.23293094 356.51831055 184.19907477 356.51831055 187.16113281 C368.72831055 187.16113281 380.93831055 187.16113281 393.51831055 187.16113281 C397.09326833 179.1584603 397.09326833 179.1584603 399.26831055 171.03613281 C399.5106543 169.89917969 399.75299805 168.76222656 400.00268555 167.59082031 C400.69175993 163.58547011 400.69175993 163.58547011 400.51831055 157.16113281 C386.65831055 157.16113281 372.79831055 157.16113281 358.51831055 157.16113281 Z M180.51831055 208.16113281 C191.00189718 226.50740942 208.71325099 244.60572522 228.51831055 253.16113281 C229.17831055 253.16113281 229.83831055 253.16113281 230.51831055 253.16113281 C229.14245067 249.53195141 227.51383795 246.0713998 225.80200195 242.58984375 C221.43764977 233.65498197 218.08168685 224.61214659 215.16918945 215.11132812 C214.38421171 212.75933929 213.43918281 210.46331348 212.51831055 208.16113281 C201.95831055 208.16113281 191.39831055 208.16113281 180.51831055 208.16113281 Z M235.51831055 208.16113281 C236.94999641 215.19122173 236.94999641 215.19122173 239.25268555 221.62597656 C239.57624023 222.35816406 239.89979492 223.09035156 240.2331543 223.84472656 C240.57475586 224.58851563 240.91635742 225.33230469 241.26831055 226.09863281 C241.62538086 226.88496094 241.98245117 227.67128906 242.3503418 228.48144531 C248.58618198 242.00360771 256.18238474 254.67516702 269.51831055 262.16113281 C270.17831055 262.16113281 270.83831055 262.16113281 271.51831055 262.16113281 C271.51831055 244.34113281 271.51831055 226.52113281 271.51831055 208.16113281 C259.63831055 208.16113281 247.75831055 208.16113281 235.51831055 208.16113281 Z M293.51831055 208.16113281 C293.51831055 226.31113281 293.51831055 244.46113281 293.51831055 263.16113281 C312.60811425 252.55568631 323.26592639 232.72185764 329.51831055 212.16113281 C329.51831055 210.84113281 329.51831055 209.52113281 329.51831055 208.16113281 C317.63831055 208.16113281 305.75831055 208.16113281 293.51831055 208.16113281 Z M351.51831055 208.16113281 C350.67268555 210.96613281 349.82706055 213.77113281 348.95581055 216.66113281 C345.0064516 229.38770014 339.68029809 241.34829034 333.51831055 253.16113281 C338.23086604 251.79941103 342.13263397 249.77618942 346.20581055 247.09863281 C346.81376465 246.70232666 347.42171875 246.30602051 348.0480957 245.89770508 C353.86775214 242.03850635 359.28393769 237.78510756 364.51831055 233.16113281 C365.20151367 232.56171875 365.8847168 231.96230469 366.58862305 231.34472656 C371.13251085 227.08598152 374.82593289 222.2781613 378.51831055 217.28613281 C379.01202148 216.61888184 379.50573242 215.95163086 380.0144043 215.26416016 C382.62040374 212.04005853 382.62040374 212.04005853 383.51831055 208.16113281 C372.95831055 208.16113281 362.39831055 208.16113281 351.51831055 208.16113281 Z M197.51831055 396.16113281 C192.33788054 403.31565871 191.32031947 410.48679001 192.51831055 419.16113281 C194.17942285 424.65694053 197.21443533 428.38212043 201.51831055 432.16113281 C202.32268555 432.88300781 203.12706055 433.60488281 203.95581055 434.34863281 C210.20800609 438.77091747 217.07998936 439.06047643 224.51831055 438.16113281 C232.9412401 435.51864511 237.61200234 430.57070388 242.33081055 423.41113281 C244.83479239 416.55812987 245.52101322 409.30134762 242.77612305 402.42675781 C238.3889067 394.52431842 232.79096336 389.26447274 224.08081055 386.71191406 C213.5245631 384.44296454 204.49541238 388.1374657 197.51831055 396.16113281 Z M387.51831055 394.16113281 C382.34185095 401.8623852 379.5643511 407.7850742 380.51831055 417.16113281 C382.55710556 424.62852659 387.15790655 431.13188933 393.5144043 435.54785156 C399.84802602 438.85992898 406.52086138 439.04576608 413.51831055 438.16113281 C416.51889244 437.21712952 418.93141035 435.93306684 421.51831055 434.16113281 C422.40518555 433.60425781 423.29206055 433.04738281 424.20581055 432.47363281 C429.45245731 427.22698605 432.63028907 420.44487386 432.83081055 413.03613281 C432.75385411 405.75412955 430.33377569 400.85839531 426.33081055 394.91113281 C420.7800297 389.48370266 414.59652273 386.51270283 406.89331055 385.84863281 C399.89279175 385.94022839 392.32377387 389.0886993 387.51831055 394.16113281 Z " fill="#000000" transform="translate(23.481689453125,25.8388671875)"/>
</svg>
